<?xml version="1.0" encoding="UTF-8"?>
<svg width="24px" height="24px" viewBox="0 0 24 24" version="1.1" xmlns="http://www.w3.org/2000/svg" xmlns:xlink="http://www.w3.org/1999/xlink">
    <!-- Generator: Sketch 63.1 (92452) - https://sketch.com -->
    <title>Settings</title>
    <g transform="translate(2.000000, 2.000000)" fill="currentcolor" id="Combined-Shape" stroke="currentcolor">
        <path d="M10,2 C14.418278,2 18,5.581722 18,10 C18,14.418278 14.418278,18 10,18 C5.581722,18 2,14.418278 2,10 C2,5.581722 5.581722,2 10,2 Z M10,5.42857143 C7.47526972,5.42857143 5.42857143,7.47526972 5.42857143,10 C5.42857143,12.5247303 7.47526972,14.5714286 10,14.5714286 C12.5247303,14.5714286 14.5714286,12.5247303 14.5714286,10 C14.5714286,7.47526972 12.5247303,5.42857143 10,5.42857143 Z"></path>
        <path d="M14.4297708,15.497138 C13.2902793,16.3183268 11.8974185,16.8300768 10.3849349,16.9044956 L13.8470549,20.0065245 L14.4297708,15.497138 Z M5.5702292,15.497138 L6.15294508,20.0065245 L9.61506513,16.9044956 C8.10258154,16.8300768 6.70972067,16.3183268 5.5702292,15.497138 Z M17.2031836,11.4247088 C16.8625255,12.8249627 16.0921591,14.0651519 15.0351249,15.0106076 L19.7634913,15.2408595 L17.2031836,11.4247088 Z M2.79681638,11.4247088 L0.236508749,15.2408595 L4.96487505,15.0106076 C3.90784093,14.0651519 3.13747447,12.8249627 2.79681638,11.4247088 Z M3.40823114,6.56091707 L-1.11077802,7.90264393 L2.65413837,10.6508424 C2.47485284,9.16961029 2.76820735,7.76550585 3.40823114,6.56091707 Z M16.596632,6.56236096 C17.2039529,7.74031227 17.4938767,8.96993085 17.3696563,10.631123 L21.1114172,7.9028337 L16.596632,6.56236096 Z M2.76219475,1.46237451 L3.8134496,5.89067371 C4.61414339,4.71874589 5.76379668,3.78863861 7.11911982,3.23659679 L2.76219475,1.46237451 Z M17.2378053,1.46237451 L12.8808802,3.23659679 C14.2362033,3.78863861 15.3858566,4.71874589 16.1865504,5.89067371 L17.2378053,1.46237451 Z M10,-1.06641651 L7.85122349,2.98160508 C8.53138173,2.78321831 9.25279533,2.6767481 10,2.6767481 C10.7472047,2.6767481 11.4686183,2.78321831 12.1487765,2.98160508 L10,-1.06641651 Z" stroke-linejoin="bevel"></path>
    </g>
</svg>